<svg width="100" height="100" viewBox="0 0 100 100" fill="none" xmlns="http://www.w3.org/2000/svg">
<path d="M0 50C0 22.3858 22.3858 0 50 0V0C77.6142 0 100 22.3858 100 50V50C100 77.6142 77.6142 100 50 100V100C22.3858 100 0 77.6142 0 50V50Z" fill="#CDECFE"/>
<path d="M68.1398 42.8305C67.7428 41.8769 67.0666 41.066 66.1999 40.504C63.6767 38.9037 59.8335 38.7888 57.2354 40.2359C55.8196 40.9585 54.888 42.3899 54.5972 43.8614C54.0748 46.2802 54.2071 49.1587 56.0704 50.9714C58.2454 52.8765 61.4077 53.2979 64.22 52.516C64.5139 52.4549 64.7994 52.3584 65.0698 52.2287L65.1516 52.1921C66.066 51.8174 66.8681 51.2128 67.4799 50.4368C68.9165 48.3402 69.014 45.1935 68.1398 42.8305ZM63.56 48.2636C63.5154 48.5079 63.4104 48.7371 63.2542 48.9302C63.0982 49.1235 62.8962 49.2744 62.6667 49.3693C62.2573 49.5285 61.8183 49.5975 61.3798 49.5713C60.9413 49.5452 60.5137 49.4246 60.126 49.2179C59.5253 48.7964 59.4469 48.0929 59.3703 47.426C59.3111 46.1112 59.217 44.7199 59.5845 43.5166C59.8735 42.7713 60.6693 42.5815 61.3885 42.5258C62.1443 42.5258 62.8809 42.6407 63.3476 43.2502C63.6384 43.6872 63.621 44.2602 63.6767 44.7756C63.6593 45.8622 63.7551 47.1561 63.56 48.2636Z" fill="#0E9AF7"/>
<path d="M40.5707 49.4471C39.9298 49.4088 39.2124 49.4646 38.5925 49.3879L38.6116 42.6958L38.6499 42.6401L40.5655 42.621C40.5863 41.5343 40.6038 40.3694 40.5446 39.3785L33.2308 39.3594L32.0258 39.3785C32.0066 40.3885 32.0066 41.5709 32.0258 42.6001C32.6857 42.621 33.3057 42.6001 33.9413 42.6593V49.1407L33.9221 49.4088L32.0066 49.4471C31.9665 50.5129 31.9665 51.5368 32.0066 52.5921H40.5637L40.5707 49.4471Z" fill="#0E9AF7"/>
<path d="M62.1061 54.0223C61.2788 55.2155 60.2813 56.2814 59.1458 57.1864C59.1057 57.2456 58.9891 57.223 58.9508 57.1673C58.4649 56.8643 57.9408 56.6152 57.4741 56.3105C58.1065 55.5941 58.672 54.8211 59.1632 54.0014H58.5607C58.0884 54.7467 57.5429 55.4433 56.9325 56.0806C56.117 55.7381 55.2806 55.4473 54.4284 55.21L54.3326 55.1368C54.4685 54.752 54.7192 54.3915 54.7976 54.0084H54.2752L53.7528 55.0393C52.5754 54.8009 51.3824 54.6478 50.1829 54.5813C50.1237 54.4072 50.2004 54.1634 50.1237 54.0084H49.6205C49.5787 54.2383 49.6779 54.4107 49.5613 54.6022C48.3912 54.651 47.2268 54.7913 46.0785 55.0219L45.5561 54.0084C45.3752 53.9854 45.1916 53.9924 45.0128 54.0293L45.4987 55.1542L45.4412 55.21C44.5717 55.4618 43.7165 55.7613 42.8796 56.1068L42.803 56.0685C42.2553 55.4804 41.7552 54.8497 41.3072 54.1825C41.2114 53.8569 40.8231 54.0485 40.6106 54.0084C41.0738 54.8477 41.6955 55.5913 42.3154 56.3558C41.793 56.6605 41.2706 57.0018 40.7238 57.2526C39.5374 56.3485 38.5034 55.2603 37.6607 54.0293C37.4546 54.0006 37.2454 54.0006 37.0391 54.0293C38.4952 56.2377 40.5016 58.0287 42.8605 59.2256C42.8608 59.2231 42.8615 59.2205 42.8626 59.2184C42.8638 59.2162 42.8653 59.2141 42.8673 59.2125C42.8694 59.2109 42.8716 59.2097 42.8739 59.2088C42.8763 59.2081 42.8789 59.208 42.8814 59.2081C42.8988 59.2081 42.9371 59.243 42.8988 59.2639C44.4376 60.0245 46.0886 60.5332 47.7886 60.7702C53.7458 61.552 59.4314 59.0166 62.7278 54.0206C62.5211 54.0002 62.3128 54.0009 62.1061 54.0223ZM54.0174 55.7428L54.0749 55.7028C54.8934 55.884 55.6881 56.1592 56.4432 56.5229C55.7985 57.2139 55.0757 57.8274 54.2891 58.3514C53.8433 58.6178 53.3958 58.9069 52.9291 59.1333L52.0967 58.7728L52.1542 58.6405C52.8464 57.7221 53.4691 56.7535 54.0174 55.7428ZM50.1864 55.1699C51.2774 55.1795 52.3638 55.3073 53.4271 55.5513L53.448 55.6087C52.8852 56.6527 52.2291 57.6435 51.4872 58.5691C51.1564 58.6074 50.8482 58.475 50.5173 58.4559L50.1864 58.4158C50.1551 57.2822 50.1342 56.2913 50.1934 55.1664L50.1864 55.1699ZM46.4442 55.5182C47.4758 55.3038 48.5253 55.1873 49.5787 55.1699L49.5996 58.3949C49.1904 58.4872 48.7446 58.4872 48.3562 58.5847C47.5789 57.6604 46.9024 56.6556 46.338 55.5878L46.4442 55.5182ZM43.3097 56.5473C44.0697 56.1916 44.8622 55.9105 45.6763 55.708L45.7564 55.7289C46.3467 56.7777 47.0002 57.7896 47.7137 58.7589C47.4438 58.9121 47.1129 59.0061 46.843 59.1594C45.531 58.5111 44.3372 57.647 43.3115 56.603L43.3097 56.5473ZM45.8138 59.8089C44.1865 59.3748 42.6526 58.6459 41.288 57.6583V57.5991C41.7469 57.2975 42.227 57.0297 42.7246 56.7981C43.785 57.8227 44.9566 58.7251 46.2178 59.4885C46.1057 59.6122 45.9746 59.7173 45.8295 59.8002L45.8138 59.8089ZM53.0109 60.0545C50.9002 60.51 48.7151 60.4975 46.6096 60.0179C46.5696 59.9221 46.7054 59.903 46.7646 59.8438C48.5687 58.6805 51.381 58.6805 53.1485 59.9361C53.2216 60.0458 53.0649 60.0092 53.0266 60.0458L53.0109 60.0545ZM54.8742 59.5233L53.9617 59.8089C53.8078 59.7243 53.6645 59.6214 53.5351 59.5024L53.5734 59.445C54.8307 58.7082 55.9899 57.8152 57.0231 56.7876C57.5507 57.0039 58.0524 57.2785 58.5189 57.6061C57.4323 58.4663 56.1733 59.0357 54.8899 59.5146L54.8742 59.5233Z" fill="#0E9AF7"/>
<path d="M37.6013 37.9101C38.0798 37.2463 38.6036 36.6161 39.1685 36.0242C39.63 35.5497 40.1369 35.1216 40.682 34.746C41.187 35.0699 41.7492 35.3398 42.2333 35.6446C41.6326 36.3829 41.0144 37.13 40.5651 37.9292C40.7565 37.9792 40.9573 37.9792 41.1485 37.9292C41.6305 37.2027 42.1761 36.5203 42.7784 35.8901C43.6108 36.1966 44.4257 36.5187 45.2807 36.7486L45.3574 36.8252L44.8733 37.9292C45.0596 37.9597 45.2496 37.9597 45.4357 37.9292C45.6099 37.6071 45.7439 37.2449 45.939 36.9192C47.0942 37.1679 48.2702 37.3084 49.4515 37.3389C49.6082 37.473 49.4914 37.7586 49.5488 37.9292H50.0713C50.1287 37.7412 50.054 37.5287 50.1289 37.3598C51.273 37.3175 52.4108 37.17 53.5281 36.9192L53.6219 36.9401L54.1443 37.9292C54.3185 37.9292 54.5518 37.9693 54.6894 37.8909L54.202 36.7869L54.242 36.7486C55.1209 36.4998 55.983 36.1943 56.8226 35.8344C57.4305 36.4884 57.9888 37.1869 58.4925 37.924C58.6872 37.9428 58.8836 37.9299 59.0743 37.8857C58.8342 37.4601 58.5551 37.0579 58.24 36.6842C57.9828 36.3195 57.6971 35.9759 57.385 35.6568V35.5592L58.7433 34.7791L58.9383 34.7025C60.1205 35.5963 61.1549 36.6704 62.0031 37.8857C62.2365 37.8857 62.43 37.9641 62.625 37.8683C61.336 35.9484 59.63 34.3445 57.6346 33.1762C55.6391 32.0077 53.4055 31.3051 51.1004 31.1205L51.0795 31.157L51.0414 31.1205C50.4676 31.0569 49.8891 31.0494 49.3138 31.0978C49.0745 31.086 48.8345 31.0935 48.5963 31.1205C46.2665 31.2859 44.0062 31.9856 41.9904 33.1655C39.9746 34.3453 38.2578 35.9735 36.9727 37.924C37.1747 37.9101 37.408 37.9815 37.6013 37.9101ZM45.6551 36.2401L45.577 36.2575C44.7881 36.0576 44.0162 35.7967 43.2677 35.4774L43.3043 35.3624C44.327 34.3732 45.4836 33.5326 46.74 32.8653C47.0308 32.9802 47.3216 33.0743 47.6107 33.2136L47.5532 33.3616C46.8532 34.2748 46.2188 35.2367 45.6551 36.2401ZM49.514 36.7538C48.9725 36.8304 48.4884 36.7364 47.9468 36.6946C47.4244 36.618 46.7644 36.5623 46.2402 36.3881C46.8062 35.3235 47.4834 34.3218 48.2604 33.3999L49.5018 33.5741C49.5558 34.5545 49.514 35.7003 49.514 36.7486V36.7538V36.7538ZM50.1165 36.7747C50.0765 35.7612 50.0974 34.638 50.1165 33.588L51.3181 33.4139C52.0756 34.3647 52.8139 35.3416 53.3189 36.3846C52.2701 36.6359 51.1951 36.7627 50.1165 36.7625V36.7747V36.7747ZM56.3071 35.4373C55.5463 35.7825 54.7529 36.0515 53.939 36.2401C53.3283 35.2047 52.6603 34.2041 51.9382 33.2432C52.2116 33.0952 52.5423 32.9802 52.8331 32.8287C54.1321 33.4833 55.3185 34.341 56.3472 35.3694L56.3071 35.4373ZM53.8222 32.1775C55.4594 32.6048 57.0047 33.3283 58.3813 34.3124L58.3428 34.389L57.0056 35.1326H56.9079C55.8744 34.1113 54.7138 33.227 53.4547 32.5014C53.4931 32.3638 53.6863 32.2663 53.8222 32.1722V32.1775V32.1775ZM53.0474 31.9859V32.026C51.3583 33.2449 48.6226 33.3581 46.8394 32.2332C46.7402 32.1566 46.5467 32.12 46.5258 31.9859C48.5841 31.5071 51.0083 31.4687 53.0474 31.9807V31.9859ZM41.2061 34.3524C42.427 33.4656 43.7837 32.7828 45.2233 32.3307C45.2825 32.2715 45.3208 32.2158 45.3974 32.2158V32.2558C45.5524 32.2924 45.6691 32.12 45.8049 32.2332C45.9407 32.3464 46.0591 32.4073 46.1532 32.5014C44.8956 33.2641 43.7273 34.1652 42.6704 35.1883C42.1461 34.9872 41.6503 34.7185 41.1955 34.389L41.2061 34.3524Z" fill="#0E9AF7"/>
<path d="M49.5343 49.594C47.7094 50.0903 45.7294 49.7124 44.4112 48.3385C44.2562 48.1469 44.1587 47.9206 44.0037 47.729L41.3917 47.7482C41.3516 49.2928 41.3325 51.0568 41.3917 52.5909L44.3015 52.5735L44.3398 51.6575C44.6707 51.809 44.9998 52.0058 45.3307 52.18C47.3489 53.0193 49.947 53.2091 51.9479 52.18C52.654 51.7995 53.2264 51.2112 53.5877 50.495C53.9489 49.7788 54.0816 48.9689 53.9679 48.1748C53.7554 46.5553 52.2021 45.0856 50.6314 44.6921L45.9297 43.3373L45.5814 43.1631C45.5004 43.1046 45.4376 43.0249 45.3996 42.9326C45.3618 42.8401 45.3505 42.7391 45.3672 42.6407C45.7347 42.0121 46.5862 42.2019 47.2305 42.2193C48.5888 42.4109 49.9853 42.8688 50.7812 44.1087C51.6344 44.1087 52.6235 44.1244 53.5552 44.0878C53.5935 42.5206 53.5377 41.1536 53.5151 39.5707C52.6444 39.5498 51.5752 39.5498 50.7028 39.5916C50.6645 39.818 50.7411 40.1401 50.6436 40.37L49.7468 39.8946C47.6119 38.9995 44.6237 38.9055 42.6838 40.2968C41.423 41.2111 41.0364 42.8532 41.3656 44.302C41.6163 45.6742 42.9328 46.6842 44.1988 47.1596C45.9245 47.7708 47.7285 48.2044 49.4769 48.8C49.651 48.8783 49.8826 49.0507 49.8443 49.2597C49.8443 49.4234 49.6702 49.5226 49.5343 49.594Z" fill="#0E9AF7"/>
<path d="M43.7652 69.7829H40.2011V69.0757L41.8831 67.2831C42.1142 67.0306 42.2843 66.8105 42.3938 66.6225C42.5058 66.4344 42.5617 66.2557 42.5617 66.0866C42.5617 65.8557 42.5034 65.6748 42.3867 65.5438C42.27 65.4106 42.1034 65.3439 41.8867 65.3439C41.6534 65.3439 41.469 65.4249 41.3332 65.5867C41.1999 65.7462 41.1333 65.9569 41.1333 66.2188H40.0977C40.0977 65.9022 40.1725 65.613 40.3226 65.3511C40.475 65.0892 40.6892 64.8844 40.9654 64.7367C41.2416 64.5868 41.5547 64.5117 41.9045 64.5117C42.4403 64.5117 42.8556 64.6404 43.151 64.8974C43.4486 65.1546 43.5973 65.5177 43.5973 65.9867C43.5973 66.2439 43.5306 66.5058 43.3974 66.7724C43.264 67.039 43.0355 67.3497 42.7116 67.7044L41.5296 68.9508H43.7652V69.7829V69.7829ZM47.9363 65.1618L45.9257 69.7829H44.8365L46.8507 65.4188H44.2651V64.5833H47.9363V65.1618ZM52.1002 67.633C52.1002 68.352 51.9515 68.9019 51.6539 69.2829C51.3563 69.6637 50.9206 69.8543 50.3469 69.8543C49.7802 69.8543 49.347 69.6674 49.0469 69.2935C48.7469 68.9198 48.5935 68.3842 48.5863 67.6866V66.7295C48.5863 66.0034 48.7363 65.4522 49.0363 65.0761C49.3386 64.7 49.7731 64.5117 50.3397 64.5117C50.9064 64.5117 51.3396 64.6987 51.6397 65.0724C51.9395 65.4439 52.0931 65.9783 52.1002 66.6759V67.633V67.633ZM51.0683 66.5831C51.0683 66.1521 51.0088 65.8392 50.8896 65.6438C50.773 65.4463 50.5898 65.3474 50.3397 65.3474C50.0968 65.3474 49.9171 65.4415 49.8004 65.6295C49.6862 65.8153 49.6254 66.107 49.6183 66.5046V67.7688C49.6183 68.1925 49.6756 68.508 49.7898 68.7151C49.9065 68.9199 50.0921 69.0222 50.3469 69.0222C50.5992 69.0222 50.7813 68.9233 50.8933 68.7259C51.0051 68.5282 51.0634 68.2259 51.0683 67.8188V66.5831V66.5831ZM56.2999 67.633C56.2999 68.352 56.1512 68.9019 55.8536 69.2829C55.556 69.6637 55.1203 69.8543 54.5465 69.8543C53.9799 69.8543 53.5466 69.6674 53.2466 69.2935C52.9467 68.9198 52.7931 68.3842 52.786 67.6866V66.7295C52.786 66.0034 52.9359 65.4522 53.236 65.0761C53.5383 64.7 53.9728 64.5117 54.5394 64.5117C55.106 64.5117 55.5393 64.6987 55.8393 65.0724C56.1394 65.4439 56.2928 65.9783 56.2999 66.6759V67.633V67.633ZM55.268 66.5831C55.268 66.1521 55.2084 65.8392 55.0893 65.6438C54.9726 65.4463 54.7895 65.3474 54.5394 65.3474C54.2966 65.3474 54.1168 65.4415 54.0001 65.6295C53.8859 65.8153 53.8253 66.107 53.8181 66.5046V67.7688C53.8181 68.1925 53.8752 68.508 53.9895 68.7151C54.1061 68.9199 54.2918 69.0222 54.5465 69.0222C54.7989 69.0222 54.981 68.9233 55.093 68.7259C55.2048 68.5282 55.2631 68.2259 55.268 67.8188V66.5831V66.5831ZM59.507 69.7829H58.4749V65.8045L57.2429 66.1868V65.3474L59.3963 64.5762H59.507V69.7829Z" fill="#0E9AF7"/>
<path d="M28.2396 24.694L28.9866 25.448C29.8869 26.3587 29.8573 27.421 28.7968 28.4658C27.7363 29.5106 26.6776 29.5332 25.7772 28.6242L22.8535 25.664C21.9532 24.755 21.9828 23.6927 23.045 22.6462C24.1072 21.5996 25.1642 21.5787 26.0628 22.4877L26.6097 23.0397L25.5926 24.0462L24.9901 23.4385C24.5879 23.0327 24.2204 23.0902 23.8774 23.4385C23.5343 23.7867 23.4716 24.135 23.8774 24.5512L26.9179 27.616C27.3184 28.0217 27.6789 27.9643 28.0219 27.616C28.365 27.2677 28.4346 26.9194 28.0324 26.512L27.2296 25.7005L28.2396 24.694Z" fill="#0E9AF7"/>
<path d="M31.1824 20.5545L32.9499 19.4574L33.5507 20.4291L31.7849 21.5244L33.0196 23.5131L35.2416 22.1339L35.8441 23.1056L32.3352 25.2823L28.1211 18.491L31.63 16.3125L32.2307 17.2824L30.0087 18.6616L31.1824 20.5545Z" fill="#0E9AF7"/>
<path d="M41.1097 21.0129C40.9651 20.8388 40.8728 20.743 40.6639 20.1265L40.2616 18.9372C40.0248 18.2406 39.6504 18.0665 38.9974 18.2911L38.5028 18.4653L39.5477 21.5492L38.1128 22.0333L35.5547 14.4601L37.7192 13.7287C39.2063 13.2272 40.0405 13.5842 40.434 14.7527L40.636 15.3482C40.899 16.1266 40.7666 16.7256 40.2111 17.1906V17.2115C41.0139 17.2115 41.4388 17.7025 41.7052 18.4914L42.0988 19.6598C42.1796 19.9843 42.3399 20.2835 42.5655 20.5305L41.1097 21.0129ZM37.3518 15.0504L38.1371 17.3769L38.6979 17.1871C39.2325 17.013 39.4937 16.7013 39.2882 16.0953L39.0357 15.3499C38.8616 14.8084 38.5516 14.6534 38.0431 14.8171L37.3518 15.0504Z" fill="#0E9AF7"/>
<path d="M43.7227 12.165L48.3808 11.707L48.4923 12.8441L46.9163 12.9991L47.5902 19.8183L46.0822 19.9681L45.41 13.1471L43.8428 13.3021L43.7227 12.165Z" fill="#0E9AF7"/>
<path d="M52.3067 11.8242L53.8165 11.9513L53.1426 19.9181L51.6328 19.7893L52.3067 11.8242Z" fill="#0E9AF7"/>
<path d="M58.6581 16.4486L60.544 16.971L60.241 18.0716L58.3551 17.5492L57.4844 20.7324L56.0234 20.3319L58.1392 12.6211L62.0033 13.6816L61.7003 14.7821L59.2972 14.1239L58.6581 16.4486Z" fill="#0E9AF7"/>
<path d="M65.7037 15.2109L67.0672 15.8709L63.5844 23.0663L62.2227 22.4045L65.7037 15.2109Z" fill="#0E9AF7"/>
<path d="M70.0791 21.6558L71.7491 22.8957L71.0666 23.8117L69.3982 22.5736L68.0051 24.4525L70.0948 26.0197L69.4141 26.9357L66.1055 24.4734L70.8733 18.0547L74.182 20.517L73.5011 21.4347L71.4008 19.8675L70.0791 21.6558Z" fill="#0E9AF7"/>
<path d="M77.3626 23.4688L78.9107 25.2972C79.8911 26.4517 79.8407 27.4687 78.8638 28.2958L75.7797 30.9079C74.8045 31.735 73.791 31.6184 72.8194 30.4638L71.2695 28.6371L77.3626 23.4688ZM77.4707 25.3633L73.1173 29.0568L73.6691 29.7081C73.9808 30.0755 74.3241 30.1626 74.7612 29.7934L77.932 27.1047C78.3674 26.7355 78.3379 26.382 78.0262 26.0146L77.4707 25.3633Z" fill="#0E9AF7"/>
<path d="M26.6741 76.0028L25.8278 76.7325C24.8074 77.6031 23.6964 77.4987 22.6742 76.3145C21.652 75.1304 21.706 74.0124 22.7247 73.1348L26.0333 70.2772C27.0537 69.4065 28.1647 69.511 29.1869 70.6951C30.2091 71.8793 30.1551 72.9972 29.1364 73.8749L28.5182 74.4095L27.5343 73.2689L28.217 72.6803C28.6715 72.2885 28.6366 71.8967 28.3058 71.5136C27.9749 71.1305 27.5936 71.0364 27.1373 71.43L23.6981 74.3903C23.2436 74.7821 23.2872 75.1652 23.618 75.5483C23.9489 75.9314 24.3145 76.0324 24.776 75.6406L25.6868 74.8553L26.6741 76.0028Z" fill="#0E9AF7"/>
<path d="M31.57 76.0278C32.3153 74.9063 33.4524 74.7391 34.7549 75.6046C36.0575 76.4701 36.3431 77.5846 35.5995 78.706L33.186 82.3472C32.4424 83.4686 31.3053 83.6358 30.0027 82.7704C28.7002 81.9049 28.4129 80.7904 29.1582 79.6707L31.57 76.0278ZM30.4294 80.6215C30.0968 81.123 30.2361 81.4922 30.6575 81.7691C31.0789 82.0459 31.4725 82.0355 31.8051 81.5357L34.3179 77.7535C34.6505 77.2537 34.5129 76.8828 34.0897 76.6059C33.6666 76.329 33.2765 76.3395 32.9439 76.8392L30.4294 80.6215Z" fill="#0E9AF7"/>
<path d="M40.9089 84.9997H40.9368L43.5662 79.5335L45.7012 80.1256L43.46 88.2438L42.0077 87.8416L43.6202 82.0289H43.5924L40.9472 87.5543L39.4967 87.1503L39.9703 81.1094H39.9424L38.3526 86.8403L37.0117 86.4676L39.2616 78.3633L41.3965 78.9571L40.9089 84.9997Z" fill="#0E9AF7"/>
<path d="M53.5067 82.2009L53.5467 83.2927C53.5972 84.6371 52.8502 85.3998 51.2516 85.459L50.4993 85.4868L50.616 88.644L49.0244 88.7032L48.7109 80.2993L51.0566 80.2105C52.6482 80.1513 53.4562 80.8548 53.5067 82.2009ZM50.3478 81.4399L50.454 84.2853L51.2063 84.2574C51.7131 84.2383 51.9812 84.0363 51.9586 83.4355L51.9116 82.1748C51.8889 81.5757 51.6068 81.3929 51.1001 81.412L50.3478 81.4399Z" fill="#0E9AF7"/>
<path d="M63.243 86.1569L61.7107 86.641L60.9898 85.2688L59.1316 85.8573L59.3284 87.395L57.9353 87.8355L56.9531 79.3255L59.1769 78.6289L63.243 86.1569ZM58.9749 84.708L60.4393 84.2448L58.4422 80.4138H58.4141L58.9749 84.708Z" fill="#0E9AF7"/>
<path d="M65.5328 78.0822L65.5101 78.0979L68.9215 83.1479L67.7339 83.9524L63.0234 76.9869L64.6777 75.8689L68.8309 79.1375L68.8536 79.1218L66.0343 74.9425L67.2097 74.1484L71.9219 81.1139L70.5653 82.0299L65.5328 78.0822Z" fill="#0E9AF7"/>
<path d="M74.6828 74.5596L69.0703 72.5135L70.1343 71.2318L73.8504 72.7573L73.8695 72.7346L71.6893 69.3616L72.6628 68.1914L75.6997 73.3302L77.8451 75.1116L76.8264 76.3306L74.6828 74.5596Z" fill="#0E9AF7"/>
</svg>
