<?xml version="1.0" encoding="UTF-8"?>
<svg width="282px" height="303px" viewBox="0 0 282 303" version="1.1" xmlns="http://www.w3.org/2000/svg" xmlns:xlink="http://www.w3.org/1999/xlink">
    <title>customers love us white</title>
    <defs>
        <linearGradient x1="37.6306555%" y1="89.8724728%" x2="238.89587%" y2="224.953%" id="linearGradient-1">
            <stop stop-color="#C2C2BD" offset="0%"></stop>
            <stop stop-color="#F06A2A" offset="100%"></stop>
        </linearGradient>
        <linearGradient x1="69.0378053%" y1="15.9493659%" x2="48.0841009%" y2="0%" id="linearGradient-2">
            <stop stop-color="#FFFFFF" offset="0%"></stop>
            <stop stop-color="#E7E7E7" offset="100%"></stop>
        </linearGradient>
        <linearGradient x1="38.9751038%" y1="33.8289283%" x2="62.4620037%" y2="104.559927%" id="linearGradient-3">
            <stop stop-color="#FFFFFF" offset="0%"></stop>
            <stop stop-color="#F3F3F3" offset="100%"></stop>
        </linearGradient>
        <linearGradient x1="198.040385%" y1="18.5680338%" x2="77.3770612%" y2="50%" id="linearGradient-4">
            <stop stop-color="#FFCB00" offset="0%"></stop>
            <stop stop-color="#F06A2B" offset="100%"></stop>
        </linearGradient>
        <linearGradient x1="-81.751479%" y1="31.6787027%" x2="50%" y2="50%" id="linearGradient-5">
            <stop stop-color="#FFCB00" offset="0%"></stop>
            <stop stop-color="#F06A2B" offset="100%"></stop>
        </linearGradient>
        <linearGradient x1="-23.8878218%" y1="50.4824271%" x2="-111.319272%" y2="36.6177972%" id="linearGradient-6">
            <stop stop-color="#FFFFFF" offset="0%"></stop>
            <stop stop-color="#DDDDDD" offset="100%"></stop>
        </linearGradient>
        <linearGradient x1="-23.8878218%" y1="50.5950823%" x2="-111.319272%" y2="33.4928196%" id="linearGradient-7">
            <stop stop-color="#FFFFFF" offset="0%"></stop>
            <stop stop-color="#DDDDDD" offset="100%"></stop>
        </linearGradient>
        <linearGradient x1="-23.8878218%" y1="50.4751177%" x2="-111.319272%" y2="36.8205549%" id="linearGradient-8">
            <stop stop-color="#FFFFFF" offset="0%"></stop>
            <stop stop-color="#DDDDDD" offset="100%"></stop>
        </linearGradient>
    </defs>
    <g id="customers-love-us-white" stroke="none" stroke-width="1" fill="none" fill-rule="evenodd">
        <g id="Group-3">
            <g id="White-leader-badge-2">
                <g id="White-leader-badge">
                    <g id="Group-6">
                        <g id="Group-5">
                            <g id="shield">
                                <path d="M-2.84217094e-14,211.193202 L-2.84217094e-14,22.9543053 C-2.94312673e-14,21.9631671 0.725912036,21.1215329 1.70630551,20.975987 L142.706306,0.0436008976 C142.901035,0.0146920477 143.098965,0.0146920477 143.293694,0.0436008976 L284.293694,20.975987 C285.274088,21.1215329 286,21.9631671 286,22.9543053 L286,211.193202 C286,211.878039 285.649594,212.515261 285.071287,212.88209 L144.071287,302.320467 C143.417329,302.735282 142.582671,302.735282 141.928713,302.320467 L0.928713132,212.88209 C0.350405661,212.515261 -6.57746969e-15,211.878039 -2.84217094e-14,211.193202 Z" id="Fill-161" fill="url(#linearGradient-1)"></path>
                                <path d="M280.551174,28.2695352 C280.451885,27.6067511 279.837638,26.383298 279.388313,25.9555711 L144.932432,5.78980892 C144.787706,5.73200798 144.678999,5.78980892 143,5.78980892 C141.321001,5.78980892 141.067568,5.78980892 141.067568,5.78980892 L6.35488762,25.9555711 C5.90892781,26.3794446 5.29636415,27.5951909 5.19539211,28.2502682 L5.19539211,207.198108 C5.29299841,207.858965 5.91061068,209.078565 6.35993622,209.502438 L143,297.210191 L279.391679,209.490878 C279.837638,209.070858 280.443471,207.862818 280.54276,207.213521 L280.551174,28.2695352 Z" id="Fill-162" fill="#F06A2B"></path>
                                <polygon id="Fill-163" fill="url(#linearGradient-2)" points="11.9113868 30.878014 11.9113868 204.581951 143 291.420382 273.826761 204.578083 273.835179 30.8799478 143 11.5796178"></polygon>
                                <polygon id="Fill-163" fill="url(#linearGradient-3)" points="11.5945946 204.573248 143 291.420382 143 11.5796178 11.9113868 30.8789809"></polygon>
                            </g>
                        </g>
                        <g id="Sash-and-text" transform="translate(11.391892, 89.044586)" fill="url(#linearGradient-4)">
                            <polygon id="Rectangle" points="0.519494905 2.13162821e-14 262.443288 2.13162821e-14 262.443288 107 0.202702703 106.955414"></polygon>
                        </g>
                        <g id="Sash-and-text" transform="translate(17.391892, 164.044586)"></g>
                        <polygon id="Rectangle" fill="url(#linearGradient-5)" points="11.7508205 89.044586 274 89 11.5945946 196"></polygon>
                        <text id="Customers" fill="url(#linearGradient-6)" font-family="Avenir-Heavy, Avenir" font-size="50" font-weight="600">
                            <tspan x="19.025" y="134">Customers</tspan>
                        </text>
                        <text id="Love-Us" fill="url(#linearGradient-7)" font-family="Avenir-Heavy, Avenir" font-size="50" font-weight="600" letter-spacing="-0.7">
                            <tspan x="53.85" y="183">Love Us</tspan>
                        </text>
                        <polygon id="Rectangle" fill="url(#linearGradient-4)" points="11.9113868 89.044586 273.835179 89.044586 273.835179 196.044586 11.5945946 196"></polygon>
                        <polygon id="Rectangle" fill="url(#linearGradient-5)" points="11.7508205 89.044586 274 89 11.5945946 196"></polygon>
                        <text id="Customers" fill="url(#linearGradient-8)" font-family="Arial-BoldMT, Arial" font-size="49" font-weight="bold">
                            <tspan x="14.5209961" y="133">Customers</tspan>
                        </text>
                        <text id="Love-Us" fill="url(#linearGradient-7)" font-family="Arial-BoldMT, Arial" font-size="49" font-weight="bold" letter-spacing="-0.686">
                            <tspan x="48.5926504" y="182">Love Us</tspan>
                        </text>
                    </g>
                </g>
            </g>
        </g>
        <g id="SourceForge-Logo-White-vector" transform="translate(23.000000, 47.000000)" fill="#000000">
            <path d="M13.8686244,3.43961353 C13.7712519,3.63768116 13.6321484,3.73913043 13.3956723,3.73913043 C13.2565688,3.73913043 13.0664606,3.63768116 12.8299845,3.39130435 C12.5981453,3.14492754 12.2642968,2.90338164 11.8887172,2.65700483 C11.4621329,2.35748792 10.9891808,2.11594203 10.3771252,1.9178744 C9.76506955,1.67149758 9.00927357,1.57004831 8.11437403,1.57004831 C7.21483771,1.57004831 6.46367852,1.72463768 5.75425039,1.96618357 C5.09582689,2.21256039 4.5301391,2.60386473 4.05718702,3.04830918 C3.58423493,3.49275362 3.25502318,4.02898551 3.01854714,4.61835749 C2.7820711,5.20772947 2.64296754,5.85024155 2.64296754,6.48792271 C2.64296754,7.37198068 2.83307573,8.06280193 3.1576507,8.65217391 C3.49149923,9.1884058 3.96445131,9.68115942 4.57650696,10.0772947 C5.14219474,10.468599 5.80061824,10.8115942 6.55641422,11.057971 C7.3122102,11.3574879 8.06800618,11.5990338 8.82380216,11.8454106 C9.57496136,12.0917874 10.3307573,12.3864734 11.0865533,12.7294686 C11.8423493,13.0241546 12.4544049,13.468599 13.0664606,13.9082126 C13.6785162,14.352657 14.1051005,14.9951691 14.4806801,15.6763285 C14.8145286,16.3671498 15,17.2512077 15,18.2850242 C15,19.3671498 14.8145286,20.3478261 14.4806801,21.2801932 C14.1514683,22.2173913 13.6321484,23.0531401 12.9737249,23.7391304 C12.3153014,24.4299517 11.4621329,24.9661836 10.5208655,25.410628 C9.52859351,25.8019324 8.44358578,26 7.21483771,26 C5.61514683,26 4.20092736,25.705314 3.06491499,25.115942 C1.88717156,24.52657 0.894899536,23.6859903 0,22.6618357 L0.472952087,21.8695652 C0.612055641,21.6714976 0.755795981,21.6280193 0.941267388,21.6280193 C1.03863988,21.6280193 1.17774343,21.6714976 1.32148377,21.826087 C1.46058733,21.9710145 1.69706337,22.1690821 1.88717156,22.3623188 C2.1236476,22.5603865 2.4064915,22.8067633 2.73570325,23.0531401 C3.06491499,23.294686 3.44049459,23.5410628 3.86707883,23.7391304 C4.29366306,23.9371981 4.76661515,24.1304348 5.33230294,24.2753623 C5.89799073,24.4299517 6.51004637,24.47343 7.21483771,24.47343 C8.20710974,24.47343 9.05564142,24.3285024 9.8114374,24.0338164 C10.5672334,23.7391304 11.2256569,23.294686 11.7449768,22.8067633 C12.2642968,22.3140097 12.690881,21.6280193 12.9737249,20.9371981 C13.2565688,20.2028986 13.3956723,19.4154589 13.3956723,18.6280193 C13.3956723,17.7439614 13.2055641,17.0096618 12.8809892,16.4202899 C12.5471406,15.826087 12.0741886,15.3333333 11.4621329,14.942029 C10.8964451,14.5507246 10.2380216,14.2077295 9.48222566,13.9613527 C8.72642968,13.7149758 7.97527048,13.4154589 7.21483771,13.173913 C6.46367852,12.9275362 5.70788253,12.6280193 4.95208655,12.3381643 C4.20092736,12.0386473 3.58423493,11.647343 2.97217929,11.1594203 C2.4064915,10.6666667 1.93353941,10.0772947 1.55795981,9.33816425 C1.22411128,8.59903382 1.03863988,7.71980676 1.03863988,6.58454106 C1.03863988,5.75362319 1.17774343,4.9178744 1.50695518,4.13043478 C1.84080371,3.33816425 2.26738794,2.65700483 2.8748068,2.01449275 C3.49149923,1.42512077 4.20092736,0.93236715 5.09582689,0.541062802 C5.99072643,0.198067633 6.98299845,0 8.11437403,0 C9.38948995,0 10.5208655,0.198067633 11.5548686,0.642512077 C12.5471406,1.0821256 13.488408,1.72463768 14.3415765,2.55555556 L13.8686244,3.43961353 Z" id="Fill-953"></path>
            <path d="M40.4137931,12.9976007 C40.4137931,11.2413257 40.1754695,9.62900759 39.6988224,8.21343071 C39.2268483,6.79785383 38.5586077,5.6270038 37.7034467,4.65289496 C36.8482856,3.67398756 35.8015311,2.939807 34.5678562,2.40716621 C33.3295082,1.86972685 31.9977001,1.625 30.5257016,1.625 C29.04903,1.625 27.7218949,1.86972685 26.4835469,2.40716621 C25.245199,2.939807 24.2031175,3.67398756 23.3479565,4.65289496 C22.4927954,5.6270038 21.7778247,6.79785383 21.3011776,8.21343071 C20.8245305,9.62900759 20.5862069,11.19334 20.5862069,12.9976007 C20.5862069,14.7538758 20.8245305,16.3661938 21.3011776,17.7817707 C21.7778247,19.1973476 22.4413923,20.3681976 23.3479565,21.347105 C24.2031175,22.3212139 25.245199,23.0553944 26.4835469,23.5928338 C27.7218949,24.1254746 29.04903,24.375 30.5257016,24.375 C31.9977001,24.375 33.3762383,24.1254746 34.5678562,23.5928338 C35.8015311,23.1033801 36.8482856,22.3212139 37.7034467,21.347105 C38.5586077,20.3681976 39.2268483,19.1973476 39.6988224,17.7817707 C40.1754695,16.3661938 40.4137931,14.80666 40.4137931,12.9976007 M42,13 C42,14.9552846 41.7213505,16.7135994 41.1640516,18.3277901 C40.6067527,19.9419808 39.8164846,21.3063562 38.7978153,22.4353289 C37.774578,23.5546933 36.5686197,24.4386548 35.1708044,25.0728012 C33.7775571,25.7117517 32.1970209,26 30.4794439,26 C28.8029791,26 27.2270109,25.7117517 25.8291956,25.0728012 C24.4359484,24.4386548 23.2299901,23.6075388 22.2021847,22.4353289 C21.1835154,21.3063562 20.3932473,19.9419808 19.8359484,18.3277901 C19.2786495,16.7135994 19,14.9552846 19,13 C19,11.0495196 19.2786495,9.28640059 19.8359484,7.67701404 C20.3932473,6.06282336 21.1835154,4.69364375 22.2021847,3.56947524 C23.2299901,2.44530673 24.4359484,1.56134516 25.8291956,0.927198817 C27.2270109,0.293052476 28.8029791,0 30.4794439,0 C32.1970209,0 33.7775571,0.293052476 35.1708044,0.927198817 C36.5686197,1.56134516 37.774578,2.39726534 38.7978153,3.56947524 C39.8164846,4.69364375 40.6067527,6.06282336 41.1640516,7.67701404 C41.7213505,9.28640059 42,11.0495196 42,13" id="Fill-955"></path>
            <path d="M55.0471439,24.3692192 C56.1875779,24.3692192 57.193315,24.1696312 58.1092542,23.7217749 C59.0207034,23.2739187 59.7525567,22.6800225 60.3901222,21.9400861 C61.0321776,21.2001498 61.4856573,20.2557573 61.80444,19.2675529 C62.1277126,18.2258004 62.3073086,17.1402359 62.3073086,15.8988953 L62.3073086,0 L64,0 L64,15.8988953 C64,17.334956 63.7710152,18.6201086 63.3624345,19.8614492 C62.9493639,21.0979217 62.3522075,22.1396742 61.5799451,23.0791987 C60.8031928,23.9700431 59.8423547,24.7148474 58.7468197,25.2113836 C57.6512846,25.7030519 56.3716638,26 55.0022449,26 C53.6328261,26 52.3487154,25.7517319 51.2531803,25.2113836 C50.1576453,24.6661674 49.2012971,23.9700431 48.4200549,23.0791987 C47.6477925,22.1883542 47.0506361,21.0979217 46.6420554,19.8614492 C46.2289848,18.6201086 46,17.286276 46,15.8988953 L46,0 L47.7375904,0 L47.7375904,15.8502153 C47.7375904,17.0380079 47.9216762,18.1771204 48.240459,19.2140049 C48.5592417,20.2557573 49.0621103,21.1466018 49.6547768,21.8914061 C50.2968321,22.6362104 51.0241956,23.2301067 51.9401347,23.6730949 C52.8515839,24.1696312 53.9067099,24.3692192 55.0471439,24.3692192" id="Fill-957"></path>
            <path d="M74.3637112,12.8227273 L74.8687895,12.8227273 L76.0930552,12.8227273 C77.3777107,12.8227273 78.5525666,12.675 79.557233,12.4238636 C80.5618995,12.1185606 81.4567664,11.7689394 82.1265441,11.2223485 C82.8512215,10.7151515 83.3562998,10.0651515 83.7460884,9.36590909 C84.135877,8.66174242 84.3060664,7.80984848 84.3060664,6.91363636 C84.3060664,5.05719697 83.6362888,3.7030303 82.2967335,2.80189394 C80.9571781,1.90075758 78.997255,1.44772727 76.3730442,1.44772727 L71.0697228,1.44772727 L71.0697228,12.8227273 L71.0697228,14.2261364 L71.0697228,26 L69,26 L69,0 L76.3730442,0 C79.7274225,0 82.2418337,0.600757576 83.855888,1.7530303 C85.5358221,2.90037879 86.3153994,4.60416667 86.3153994,6.8594697 C86.3153994,7.86401515 86.14521,8.76515152 85.7609113,9.56780303 C85.3656327,10.3655303 84.8056547,11.1189394 84.0809772,11.719697 C83.3562998,12.3204545 82.5163327,12.8719697 81.5116662,13.2215909 C80.5069997,13.6253788 79.3321438,13.8765152 78.1078781,14.0242424 C78.442767,14.2261364 78.717266,14.4772727 78.997255,14.7727273 L89,26 L87.1553665,26 C86.9302772,26 86.7655778,25.9458333 86.5953884,25.8965909 C86.430689,25.8522727 86.2604996,25.694697 86.14521,25.5469697 L76.8781224,15.0238636 C76.6530332,14.7727273 76.3730442,14.5757576 76.153445,14.4772727 C75.8734559,14.3738636 74.2484216,14.3295455 73.6939336,14.3295455 C73.6939336,12.9704545 73.9135328,12.8227273 74.3637112,12.8227273" id="Fill-959"></path>
            <path d="M106.023831,21.4468715 C106.120073,21.4468715 106.257562,21.4998149 106.303391,21.5912625 L107,22.3757867 C106.491292,22.9196594 105.978002,23.453906 105.368469,23.8967049 C104.76352,24.3395039 104.112741,24.7293595 103.411549,25.0229545 C102.71494,25.3165494 101.917507,25.557201 101.129239,25.7593484 C100.290559,25.9566827 99.355637,26 98.3794684,26 C96.6975252,26 95.1576535,25.706405 93.7598533,25.0710848 C92.3620532,24.4357645 91.147571,23.5982969 90.1714024,22.4239171 C89.1906508,21.3024806 88.3978002,19.9307664 87.8386801,18.3135876 C87.27956,16.7012218 87,14.9348389 87,12.9759348 C87,11.0699741 87.27956,9.30359126 87.8845096,7.69122547 C88.4482126,6.07404665 89.2868928,4.75046279 90.3088909,3.57608293 C91.335472,2.4498334 92.5957837,1.56423547 94.0394134,0.928915217 C95.487626,0.293594965 97.1191567,0 98.8423465,0 C99.7268561,0 100.519707,0.0481303221 101.266728,0.197334321 C102.013749,0.341725287 102.669111,0.539059608 103.31989,0.78452425 C103.970669,1.02998889 104.529789,1.37171418 105.088909,1.76156979 C105.648029,2.1514254 106.211732,2.59422436 106.72044,3.08515365 L106.211732,3.8696779 C106.120073,4.01406886 105.978002,4.06701222 105.790101,4.06701222 C105.698442,4.06701222 105.55637,4.01406886 105.418882,3.8696779 C105.27681,3.7204739 105.04308,3.57608293 104.809349,3.37874861 C104.580202,3.18141429 104.250229,2.988893 103.92484,2.79155868 C103.59945,2.54609404 103.177819,2.34875972 102.669111,2.20436875 C102.20165,2.00703443 101.637947,1.86264347 100.987168,1.71343947 C100.382218,1.56423547 99.6351971,1.51610515 98.8423465,1.51610515 C97.3483043,1.51610515 95.9963336,1.76156979 94.7864345,2.3006294 C93.5765353,2.839689 92.5041247,3.57608293 91.6150321,4.60125879 C90.7305225,5.58311736 90.0293309,6.80562755 89.5160403,8.17734173 C89.0073327,9.54905591 88.7736022,11.1614217 88.7736022,12.9229915 C88.7736022,14.7375046 89.0073327,16.3065531 89.5160403,17.7263976 C90.0293309,19.1414291 90.6846929,20.320622 91.5692026,21.3024806 C92.4582951,22.2795261 93.4802933,23.011107 94.6489459,23.5501666 C95.8130156,24.0940392 97.1191567,24.3395039 98.4711274,24.3395039 C99.355637,24.3395039 100.102658,24.2865605 100.799267,24.1421696 C101.500458,24.0410959 102.109991,23.8485746 102.669111,23.5982969 C103.228231,23.3528323 103.787351,23.0640504 104.250229,22.7223251 C104.76352,22.3757867 105.230981,21.9859311 105.698442,21.4998149 C105.744271,21.4468715 105.790101,21.3987412 105.83593,21.3987412 C105.88176,21.4998149 105.978002,21.4468715 106.023831,21.4468715" id="Fill-961"></path>
            <polygon id="Fill-963" points="127 0 127 1.5540797 112.957016 1.5540797 112.957016 12.0971537 124.633375 12.0971537 124.633375 13.6018975 112.957016 13.6018975 112.957016 24.4459203 127 24.4459203 127 26 111 26 111 0"></polygon>
            <polygon id="Fill-965" points="149 0 149 3.87449093 136.334314 3.87449093 136.334314 11.5560903 147.00824 11.5560903 147.00824 15.4257682 136.334314 15.4257682 136.334314 26 131 26 131 0.0529433543 149 0.0529433543"></polygon>
            <path d="M171.125,13 C171.125,11.6137947 170.930701,10.3685594 170.542104,9.27369217 C170.158246,8.17412592 169.632218,7.22022871 168.954542,6.44959253 C168.276866,5.68365536 167.409631,5.11037723 166.400226,4.68276814 C165.386082,4.25515904 164.277158,4.0625 163.026064,4.0625 C161.770232,4.0625 160.661308,4.25515904 159.651903,4.68276814 C158.637759,5.11037723 157.817913,5.68365536 157.092848,6.44959253 C156.372521,7.22022871 155.841754,8.17412592 155.453157,9.27369217 C155.069299,10.3685594 154.875,11.6137947 154.875,13 C154.875,14.3862053 155.069299,15.6314406 155.453157,16.7310068 C155.841754,17.8258741 156.372521,18.7844703 157.092848,19.5504075 C157.817913,20.3163446 158.637759,20.8896228 159.651903,21.3219309 C160.661308,21.74954 161.770232,21.9375 163.026064,21.9375 C164.277158,21.9375 165.386082,21.74954 166.400226,21.3219309 C167.409631,20.8896228 168.229477,20.3163446 168.954542,19.5504075 C169.632218,18.7844703 170.158246,17.8258741 170.542104,16.7310068 C170.930701,15.6314406 171.125,14.3862053 171.125,13 M176,13 C176,14.8719623 175.710214,16.6024664 175.083135,18.182082 C174.456057,19.7664128 173.586698,21.1527022 172.422803,22.3079434 C171.315914,23.4584694 169.914489,24.3685165 168.31829,25.0428001 C166.72209,25.7123685 164.935867,26 163.002375,26 C161.068884,26 159.27791,25.6699311 157.68171,25.0428001 C156.090261,24.3685165 154.736342,23.5103373 153.577197,22.3079434 C152.413302,21.1527022 151.543943,19.7664128 150.916865,18.182082 C150.289786,16.6024664 150,14.8719623 150,13 C150,11.132753 150.289786,9.40224882 150.916865,7.81791803 C151.543943,6.23358723 152.413302,4.84729779 153.577197,3.69205658 C154.736342,2.54153065 156.090261,1.6314835 157.68171,0.957199855 C159.27791,0.287631483 161.068884,0 163.002375,0 C164.935867,0 166.72209,0.334784186 168.31829,1.00906783 C169.914489,1.68335147 171.263658,2.59339862 172.422803,3.74392456 C173.534442,4.89445049 174.456057,6.2854552 175.083135,7.869786 C175.662708,9.40224882 176,11.132753 176,13" id="Fill-966"></path>
            <path d="M184.014279,12.360972 L185.016659,12.360972 C185.843408,12.360972 186.541647,12.2596921 187.149929,12.0185494 C187.762494,11.7725839 188.242266,11.4783899 188.636364,11.082916 C189.026178,10.6922649 189.330319,10.2051567 189.50595,9.66017436 C189.68158,9.12483769 189.81009,8.48339826 189.81009,7.84678167 C189.81009,6.52049712 189.420276,5.49322946 188.636364,4.80838434 C187.852451,4.11871638 186.674441,3.72806529 185.102332,3.72806529 L182.317944,3.72806529 L182.317944,12.360972 L182.317944,15.8478946 L182.317944,26 L178,26 L178,0 L185.059495,0 C186.62732,0 187.980961,0.197736969 189.111851,0.540159525 C190.247025,0.877759228 191.159448,1.41791875 191.86197,2.05453534 C192.555926,2.69597477 193.121371,3.53032832 193.429795,4.41773326 C193.776773,5.34372102 193.952404,6.32758301 193.952404,7.45130774 C193.952404,8.33871267 193.81961,9.17306622 193.601142,9.95919124 C193.386959,10.7404934 193.035697,11.4301614 192.598762,12.066778 C192.161828,12.7033945 191.639219,13.2483769 190.988101,13.7354851 C190.332699,14.2274161 189.63446,14.6180671 188.807711,14.8688555 C189.330319,15.2064552 189.81009,15.6983862 190.204188,16.3350028 L196,25.9517715 L192.123275,25.9517715 C191.729177,25.9517715 191.420752,25.8553144 191.159448,25.7106288 C190.898144,25.5611204 190.68396,25.3199777 190.508329,24.9727323 L185.672061,16.6340197 C185.539267,16.4362827 185.277963,15.9925802 185.016659,15.9443517 L183.491671,15.9443517 L183.491671,12.8046745 C183.534507,12.360972 184.014279,12.360972 184.014279,12.360972" id="Fill-967"></path>
            <path d="M210.505646,22.3146271 C211.58302,22.3146271 212.559389,22.2157857 213.343371,22.0228096 C214.127353,21.8345402 214.911334,21.5474294 215.642409,21.2132513 L215.642409,15.4663287 L212.415098,15.4663287 C212.121706,15.4663287 211.876412,15.3674873 211.679214,15.2262853 C211.486826,15.0333092 211.385822,14.8450398 211.385822,14.6049964 L211.385822,11.9221579 L220,11.9221579 L220,23.3218682 C219.365119,23.7972484 218.677332,24.1784938 217.941447,24.5173787 C217.210372,24.8515568 216.474488,25.1433744 215.642409,25.3787111 C214.81514,25.6187545 213.983061,25.7599566 213.049979,25.858798 C212.121706,25.9529327 211.140527,26 210.067963,26 C208.158511,26 206.446257,25.6658219 204.830197,25.0445329 C203.214136,24.4185373 201.843371,23.5101376 200.7179,22.3616944 C199.544333,21.2132513 198.664157,19.8247647 197.981179,18.243302 C197.341489,16.666546 197,14.8921072 197,13.0235337 C197,11.1078928 197.293392,9.3852281 197.933082,7.75669804 C198.567963,6.17523534 199.448139,4.78674873 200.621706,3.63830558 C201.795274,2.48986242 203.214136,1.58146271 204.878294,0.960173787 C206.542451,0.334178132 208.403806,0 210.457549,0 C212.559389,0 214.420744,0.287110789 215.935801,0.90839971 C217.503764,1.53439537 218.778335,2.34866039 219.850899,3.30412744 L218.432037,5.45981173 C218.138645,5.89283128 217.797156,6.13287473 217.354663,6.13287473 C217.061271,6.13287473 216.76788,6.03403331 216.474488,5.8410572 C216.084902,5.60101376 215.695316,5.40803765 215.30092,5.16799421 C214.911334,4.93265749 214.468841,4.74438812 213.983061,4.59377263 C213.492472,4.4525706 212.953785,4.31136857 212.367001,4.21252715 C211.780217,4.11839247 211.044333,4.07132513 210.260351,4.07132513 C208.99059,4.07132513 207.812212,4.2595945 206.787746,4.69261405 C205.758469,5.1256336 204.878294,5.69985518 204.147219,6.5141202 C203.411334,7.28131789 202.872647,8.23678494 202.483061,9.33816075 C202.088666,10.4395366 201.891468,11.6821144 201.891468,13.0235337 C201.891468,14.5108617 202.088666,15.8005069 202.531159,16.94895 C202.973651,18.0973932 203.560435,19.057567 204.29151,19.8247647 C205.027394,20.5919623 205.955667,21.2132513 206.984944,21.6415641 C208.00941,22.0745836 209.283982,22.3146271 210.505646,22.3146271" id="Fill-968"></path>
            <path d="M237.064155,15.5527536 L228.387287,15.5527536 L228.387287,22.1238643 L241,22.1238643 L241,26 L223,26 L223,0 L241,0 L241,3.8809568 L228.334314,3.8809568 L228.334314,11.8742815 L238.303708,11.8742815 L238.303708,14.7187094 C238.303708,14.7187094 238.250736,15.5527536 237.064155,15.5527536" id="Fill-969"></path>
        </g>
        <g id="SF-logo-vector" transform="translate(115.000000, 212.000000)" fill="#F06A2A">
            <path d="M23.6464966,0 L30.3891773,0 C30.7265254,-2.70511029e-15 31,0.273474643 31,0.61082271 L31,0.832381267 C31,1.08274105 30.906089,1.32399362 30.7368249,1.50846493 L9.43662457,24.7223334 C9.08643716,25.1039826 9.08563235,25.689864 9.43476992,26.0724739 L26.239829,44.4886562 C26.585395,44.867352 26.5886018,45.4460395 26.247254,45.8285419 L23.2612409,49.1745632 C22.8935138,49.5866253 22.2613697,49.6225659 21.8493075,49.2548387 C21.8242143,49.2324454 21.8002668,49.2088003 21.7775562,49.1839938 L0.61760507,26.0711599 C0.267962357,25.6892481 0.267679392,25.1036033 0.616952886,24.7213539 L22.9082642,0.32545354 C23.0977189,0.118111874 23.3656343,-7.27450109e-15 23.6464966,0 Z" id="Rectangle"></path>
            <path d="M49.6656594,4 L56.3950625,4 C56.7291603,4 57,4.27083975 57,4.60493751 L57,4.82200882 C57,5.07153043 56.9067154,5.31203765 56.738465,5.49630063 L35.4641747,28.7952913 C35.1157542,29.1768715 35.1154234,29.7610638 35.4634116,30.1430382 L52.2191201,48.5351923 C52.5650596,48.914918 52.5670343,49.494982 52.2236881,49.8770541 L49.2545582,53.181071 C48.8854073,53.5918582 48.2531427,53.6256111 47.8423555,53.2564603 C47.818529,53.2350488 47.7957451,53.2125048 47.7740826,53.1889063 L26.6187,30.1428116 C26.2684665,29.7612769 26.2674953,29.175468 26.6164616,28.7927741 L48.9267415,4.3262045 C49.1162238,4.11840875 49.3844431,4 49.6656594,4 Z" id="Rectangle" transform="translate(41.500000, 29.000000) rotate(-180.000000) translate(-41.500000, -29.000000) "></path>
            <path d="M29.2151294,38 C33.7870015,38 37.3931645,32.9223519 36.9655271,27.4930931 C36.775257,25.0774346 35.290897,20.7530637 34.7876574,21.5225197 C34.5391538,21.9024829 35.1029805,24.8693949 34.9183087,26.6843402 C34.6113158,29.7014512 33.4542337,31.5387477 32.8630716,30.4645886 C32.2719095,29.3904296 32.4748171,27.2704542 32.331291,25.0390612 C32.1756631,22.6195224 31.7699646,20.2098813 31.2657627,18.7153481 C31.0458576,18.0635152 28.9766439,12.5230787 27.4844199,12 C27.3876182,12 27.326852,12 27.3021215,12 C27.2538763,12 27.1170918,12.0462806 27.0335972,12.1196689 C26.7047474,12.4087143 27.1993077,14.310409 25.8296969,16.6266317 C24.9305917,18.1471571 23.1786135,20.1295898 22.3197938,22.0761364 C21.1569749,24.7117082 20.9494396,27.2945017 21.0092301,28.6583535 C21.2700568,34.6079438 24.6432574,38 29.2151294,38 Z" id="Oval"></path>
        </g>
    </g>
</svg>