<svg width="100" height="100" viewBox="0 0 100 100" fill="none" xmlns="http://www.w3.org/2000/svg">
<path d="M0 50C0 22.3858 22.3858 0 50 0V0C77.6142 0 100 22.3858 100 50V50C100 77.6142 77.6142 100 50 100V100C22.3858 100 0 77.6142 0 50V50Z" fill="#CDECFE"/>
<path d="M50 13.8438L51.2095 17.5679H55.125L51.9578 19.869L53.1673 23.5932L50 21.2921L46.8327 23.5932L48.0423 19.869L44.875 17.5679H48.7905L50 13.8438Z" fill="#0E9AF7"/>
<path d="M50 75.3203L51.2095 79.0428H55.125L51.9578 81.3456L53.1673 85.0681L50 82.7669L46.8327 85.0681L48.0423 81.3456L44.875 79.0428H48.7905L50 75.3203Z" fill="#0E9AF7"/>
<path d="M34.1445 71.9023L35.354 75.6248H39.2695L36.1023 77.9276L37.3118 81.6501L34.1445 79.349L30.9773 81.6501L32.1868 77.9276L29.0195 75.6248H32.935L34.1445 71.9023Z" fill="#0E9AF7"/>
<path d="M64.8945 71.9023L66.104 75.6248H70.0195L66.8523 77.9276L68.0618 81.6501L64.8945 79.349L61.7273 81.6501L62.9368 77.9276L59.7695 75.6248H63.685L64.8945 71.9023Z" fill="#0E9AF7"/>
<path d="M34.1445 18.9453L35.354 22.6695H39.2695L36.1023 24.9706L37.3118 28.6931L34.1445 26.3919L30.9773 28.6931L32.1868 24.9706L29.0195 22.6695H32.935L34.1445 18.9453Z" fill="#0E9AF7"/>
<path d="M64.8945 18.9453L66.104 22.6695H70.0195L66.8523 24.9706L68.0618 28.6931L64.8945 26.3919L61.7273 28.6931L62.9368 24.9706L59.7695 22.6695H63.685L64.8945 18.9453Z" fill="#0E9AF7"/>
<path d="M22.668 29.1953L23.8775 32.9195H27.793L24.6257 35.2206L25.8352 38.9431L22.668 36.6419L19.5007 38.9431L20.7102 35.2206L17.543 32.9195H21.4585L22.668 29.1953Z" fill="#0E9AF7"/>
<path d="M75.625 29.1953L76.8345 32.9195H80.75L77.5828 35.2206L78.7923 38.9431L75.625 36.6419L72.4577 38.9431L73.6673 35.2206L70.5 32.9195H74.4155L75.625 29.1953Z" fill="#0E9AF7"/>
<path d="M22.668 59.9453L23.8775 63.6678H27.793L24.6257 65.9706L25.8352 69.6931L22.668 67.3919L19.5007 69.6931L20.7102 65.9706L17.543 63.6678H21.4585L22.668 59.9453Z" fill="#0E9AF7"/>
<path d="M75.625 59.9453L76.8345 63.6678H80.75L77.5828 65.9706L78.7923 69.6931L75.625 67.3919L72.4577 69.6931L73.6673 65.9706L70.5 63.6678H74.4155L75.625 59.9453Z" fill="#0E9AF7"/>
<path d="M19.25 44.5703L20.4595 48.2945H24.375L21.2078 50.5956L22.4173 54.3181L19.25 52.0169L16.0827 54.3181L17.2923 50.5956L14.125 48.2945H18.0405L19.25 44.5703Z" fill="#0E9AF7"/>
<path d="M80.75 44.5703L81.9595 48.2945H85.875L82.7078 50.5956L83.9173 54.3181L80.75 52.0169L77.5827 54.3181L78.7923 50.5956L75.625 48.2945H79.5405L80.75 44.5703Z" fill="#0E9AF7"/>
<path d="M37.6923 56C35.656 56 34 54.344 34 52.3077V47.6923C34 45.656 35.656 44 37.6923 44C39.7287 44 41.3846 45.656 41.3846 47.6923H39.5385C39.5385 46.6746 38.71 45.8462 37.6923 45.8462C36.6746 45.8462 35.8462 46.6746 35.8462 47.6923V52.3077C35.8462 53.3254 36.6746 54.1538 37.6923 54.1538C38.71 54.1538 39.5385 53.3254 39.5385 52.3077V51.3846H38.6154V49.5385H41.3846V52.3077C41.3846 54.344 39.7287 56 37.6923 56Z" fill="#0E9AF7"/>
<path d="M45.9997 56H43.2305V44H45.9997C48.0361 44 49.692 45.656 49.692 47.6923V52.3077C49.692 54.344 48.0361 56 45.9997 56ZM45.0766 54.1538H45.9997C47.0174 54.1538 47.8459 53.3254 47.8459 52.3077V47.6923C47.8459 46.6746 47.0174 45.8462 45.9997 45.8462H45.0766V54.1538Z" fill="#0E9AF7"/>
<path d="M53.3852 56H51.5391V44H54.3083C56.3446 44 58.0006 45.656 58.0006 47.6923C58.0006 49.7287 56.3446 51.3846 54.3083 51.3846H53.3852V56ZM53.3852 49.5385H54.3083C55.326 49.5385 56.1544 48.71 56.1544 47.6923C56.1544 46.6746 55.326 45.8462 54.3083 45.8462H53.3852V49.5385Z" fill="#0E9AF7"/>
<path d="M66.3092 56H64.9426L61.6938 51.939V56H59.8477V44H62.6169C64.6532 44 66.3092 45.656 66.3092 47.6923C66.3092 49.415 65.1229 50.8663 63.5237 51.2719L65.8296 54.1538H66.3092V56ZM62.1373 49.5385H62.6169C63.6346 49.5385 64.463 48.71 64.463 47.6923C64.463 46.6746 63.6346 45.8462 62.6169 45.8462H61.6938V49.5385H62.1373Z" fill="#0E9AF7"/>
</svg>
